<svg width="156" height="32" viewBox="0 0 156 32" fill="none" xmlns="http://www.w3.org/2000/svg">
<path d="M44.56 23V11.64H40.08V9H52.28V11.64H47.8V23H44.56ZM53.6233 23V9H59.6833C60.9366 9 62.0166 9.20667 62.9233 9.62C63.8299 10.02 64.5299 10.6 65.0233 11.36C65.5166 12.12 65.7633 13.0267 65.7633 14.08C65.7633 15.12 65.5166 16.02 65.0233 16.78C64.5299 17.5267 63.8299 18.1 62.9233 18.5C62.0166 18.9 60.9366 19.1 59.6833 19.1H55.4233L56.8633 17.68V23H53.6233ZM62.5233 23L59.0233 17.92H62.4833L66.0233 23H62.5233ZM56.8633 18.04L55.4233 16.52H59.5033C60.5033 16.52 61.2499 16.3067 61.7433 15.88C62.2366 15.44 62.4833 14.84 62.4833 14.08C62.4833 13.3067 62.2366 12.7067 61.7433 12.28C61.2499 11.8533 60.5033 11.64 59.5033 11.64H55.4233L56.8633 10.1V18.04ZM70.9103 14.64H77.6503V17.16H70.9103V14.64ZM71.1503 20.4H78.7703V23H67.9303V9H78.5103V11.6H71.1503V20.4ZM80.9483 23V9H83.6283L91.8883 19.08H90.5883V9H93.7883V23H91.1283L82.8483 12.92H84.1483V23H80.9483ZM96.7006 23V9H103.061C104.581 9 105.921 9.29333 107.081 9.88C108.241 10.4533 109.147 11.26 109.801 12.3C110.454 13.34 110.781 14.5733 110.781 16C110.781 17.4133 110.454 18.6467 109.801 19.7C109.147 20.74 108.241 21.5533 107.081 22.14C105.921 22.7133 104.581 23 103.061 23H96.7006ZM99.9406 20.34H102.901C103.834 20.34 104.641 20.1667 105.321 19.82C106.014 19.46 106.547 18.9533 106.921 18.3C107.307 17.6467 107.501 16.88 107.501 16C107.501 15.1067 107.307 14.34 106.921 13.7C106.547 13.0467 106.014 12.5467 105.321 12.2C104.641 11.84 103.834 11.66 102.901 11.66H99.9406V20.34ZM115.824 15.3H122.544V17.9H115.824V15.3ZM116.064 23H112.824V9H123.404V11.6H116.064V23ZM125.197 23V9H128.437V20.36H135.457V23H125.197ZM136.868 23V9H140.108V23H136.868ZM141.43 23L147.45 14.7V17.06L141.69 9H145.37L149.35 14.62L147.81 14.64L151.73 9H155.25L149.53 16.92V14.6L155.59 23H151.85L147.73 17.06H149.21L145.15 23H141.43Z" fill="white"/>
<rect width="32" height="32" rx="16" fill="white"/>
<path d="M17.5 5C17.5 5 18.24 7.65 18.24 9.8C18.24 11.86 16.89 13.53 14.83 13.53C12.76 13.53 11.2 11.86 11.2 9.8L11.23 9.44C9.21 11.84 8 14.95 8 18.33C8 22.75 11.58 26.33 16 26.33C20.42 26.33 24 22.75 24 18.33C24 12.94 21.41 8.13 17.5 5ZM15.71 23.33C13.93 23.33 12.49 21.93 12.49 20.19C12.49 18.57 13.54 17.43 15.3 17.07C17.07 16.71 18.9 15.86 19.92 14.49C20.31 15.78 20.51 17.14 20.51 18.53C20.51 21.18 18.36 23.33 15.71 23.33Z" fill="url(#paint0_linear_235_46)"/>
<defs>
<linearGradient id="paint0_linear_235_46" x1="19.5" y1="26" x2="12.9362" y2="6.91338" gradientUnits="userSpaceOnUse">
<stop stop-color="#E21221"/>
<stop offset="1" stop-color="#FF4451"/>
</linearGradient>
</defs>
</svg>
