<svg width="167" height="40" viewBox="0 0 167 40" fill="none" xmlns="http://www.w3.org/2000/svg">
<rect width="166.667" height="40" fill="white"/>
<path d="M58.4667 25.8333V17.0429H55V15H64.4405V17.0429H60.9738V25.8333H58.4667ZM65.4799 25.8333V15H70.1692C71.139 15 71.9747 15.1599 72.6764 15.4798C73.3779 15.7893 73.9196 16.2381 74.3014 16.8262C74.6831 17.4143 74.874 18.1159 74.874 18.931C74.874 19.7357 74.6831 20.4321 74.3014 21.0202C73.9196 21.598 73.3779 22.0417 72.6764 22.3512C71.9747 22.6607 71.139 22.8155 70.1692 22.8155H66.8728L67.9871 21.7167V25.8333H65.4799ZM72.3668 25.8333L69.6585 21.9024H72.3359L75.0752 25.8333H72.3668ZM67.9871 21.9952L66.8728 20.819H70.0299C70.8037 20.819 71.3815 20.654 71.7633 20.3238C72.145 19.9833 72.3359 19.519 72.3359 18.931C72.3359 18.3326 72.145 17.8683 71.7633 17.5381C71.3815 17.2079 70.8037 17.0429 70.0299 17.0429H66.8728L67.9871 15.8512V21.9952ZM78.8568 19.3643H84.0723V21.3143H78.8568V19.3643ZM79.0425 23.8214H84.9389V25.8333H76.5508V15H84.7377V17.0119H79.0425V23.8214ZM86.6243 25.8333V15H88.6981L95.0898 22.8H94.0838V15H96.56V25.8333H94.5017L88.0945 18.0333H89.1005V25.8333H86.6243ZM98.8136 25.8333V15H103.735C104.911 15 105.948 15.227 106.846 15.681C107.744 16.1246 108.445 16.7488 108.951 17.5536C109.456 18.3583 109.709 19.3127 109.709 20.4167C109.709 21.5103 109.456 22.4647 108.951 23.2798C108.445 24.0845 107.744 24.7139 106.846 25.1679C105.948 25.6115 104.911 25.8333 103.735 25.8333H98.8136ZM101.321 23.775H103.611C104.333 23.775 104.958 23.6409 105.484 23.3726C106.02 23.094 106.433 22.702 106.722 22.1964C107.021 21.6909 107.171 21.0976 107.171 20.4167C107.171 19.7254 107.021 19.1321 106.722 18.6369C106.433 18.1314 106.02 17.7445 105.484 17.4762C104.958 17.1976 104.333 17.0583 103.611 17.0583H101.321V23.775ZM113.611 19.875H118.811V21.8869H113.611V19.875ZM113.797 25.8333H111.29V15H119.477V17.0119H113.797V25.8333ZM120.864 25.8333V15H123.371V23.7905H128.804V25.8333H120.864ZM129.895 25.8333V15H132.403V25.8333H129.895ZM133.426 25.8333L138.084 19.4107V21.2369L133.627 15H136.474L139.554 19.3488L138.362 19.3643L141.396 15H144.12L139.693 21.1286V19.3333L144.383 25.8333H141.489L138.301 21.2369H139.446L136.304 25.8333H133.426Z" fill="#2B2F3B"/>
<path d="M46 20C46 12.8203 40.1797 7 33 7C25.8203 7 20 12.8203 20 20C20 27.1797 25.8203 33 33 33C40.1797 33 46 27.1797 46 20Z" fill="url(#paint0_linear_125_22)"/>
<path d="M34.2188 11.0625C34.2188 11.0625 34.82 13.2156 34.82 14.9625C34.82 16.6363 33.7231 17.9931 32.0494 17.9931C30.3675 17.9931 29.1 16.6363 29.1 14.9625L29.1244 14.67C27.4831 16.62 26.5 19.1469 26.5 21.8931C26.5 25.4844 29.4087 28.3931 33 28.3931C36.5913 28.3931 39.5 25.4844 39.5 21.8931C39.5 17.5138 37.3956 13.6056 34.2188 11.0625ZM32.7644 25.9556C31.3181 25.9556 30.1481 24.8181 30.1481 23.4044C30.1481 22.0881 31.0013 21.1619 32.4313 20.8694C33.8694 20.5769 35.3563 19.8862 36.185 18.7731C36.5019 19.8212 36.6644 20.9263 36.6644 22.0556C36.6644 24.2088 34.9175 25.9556 32.7644 25.9556Z" fill="white"/>
<defs>
<linearGradient id="paint0_linear_125_22" x1="38.6875" y1="32.5977" x2="32.3949" y2="8.20409" gradientUnits="userSpaceOnUse">
<stop stop-color="#E21221"/>
<stop offset="1" stop-color="#FF4451"/>
</linearGradient>
</defs>
</svg>
