<svg width="135" height="28" viewBox="0 0 135 28" fill="none" xmlns="http://www.w3.org/2000/svg">
<path d="M39.876 20V10.344H36.068V8.1H46.438V10.344H42.63V20H39.876ZM47.5798 20V8.1H52.7308C53.7961 8.1 54.7141 8.27567 55.4848 8.627C56.2555 8.967 56.8505 9.46 57.2698 10.106C57.6891 10.752 57.8988 11.5227 57.8988 12.418C57.8988 13.302 57.6891 14.067 57.2698 14.713C56.8505 15.3477 56.2555 15.835 55.4848 16.175C54.7141 16.515 53.7961 16.685 52.7308 16.685H49.1098L50.3338 15.478V20H47.5798ZM55.1448 20L52.1698 15.682H55.1108L58.1198 20H55.1448ZM50.3338 15.784L49.1098 14.492H52.5778C53.4278 14.492 54.0625 14.3107 54.4818 13.948C54.9011 13.574 55.1108 13.064 55.1108 12.418C55.1108 11.7607 54.9011 11.2507 54.4818 10.888C54.0625 10.5253 53.4278 10.344 52.5778 10.344H49.1098L50.3338 9.035V15.784ZM62.2738 12.894H68.0028V15.036H62.2738V12.894ZM62.4778 17.79H68.9548V20H59.7408V8.1H68.7338V10.31H62.4778V17.79ZM70.806 20V8.1H73.084L80.105 16.668H79V8.1H81.72V20H79.459L72.421 11.432H73.526V20H70.806ZM84.1955 20V8.1H89.6015C90.8935 8.1 92.0325 8.34933 93.0185 8.848C94.0045 9.33533 94.7752 10.021 95.3305 10.905C95.8859 11.789 96.1635 12.8373 96.1635 14.05C96.1635 15.2513 95.8859 16.2997 95.3305 17.195C94.7752 18.079 94.0045 18.7703 93.0185 19.269C92.0325 19.7563 90.8935 20 89.6015 20H84.1955ZM86.9495 17.739H89.4655C90.2589 17.739 90.9445 17.5917 91.5225 17.297C92.1119 16.991 92.5652 16.5603 92.8825 16.005C93.2112 15.4497 93.3755 14.798 93.3755 14.05C93.3755 13.2907 93.2112 12.639 92.8825 12.095C92.5652 11.5397 92.1119 11.1147 91.5225 10.82C90.9445 10.514 90.2589 10.361 89.4655 10.361H86.9495V17.739ZM100.45 13.455H106.162V15.665H100.45V13.455ZM100.654 20H97.9005V8.1H106.893V10.31H100.654V20ZM108.418 20V8.1H111.172V17.756H117.139V20H108.418ZM118.338 20V8.1H121.092V20H118.338ZM122.216 20L127.333 12.945V14.951L122.437 8.1H125.565L128.948 12.877L127.639 12.894L130.971 8.1H133.963L129.101 14.832V12.86L134.252 20H131.073L127.571 14.951H128.829L125.378 20H122.216Z" fill="white"/>
<rect width="28" height="28" rx="14" fill="white"/>
<path d="M15.3125 5C15.3125 5 15.96 7.31875 15.96 9.2C15.96 11.0025 14.7787 12.4638 12.9762 12.4638C11.165 12.4638 9.8 11.0025 9.8 9.2L9.82625 8.885C8.05875 10.985 7 13.7063 7 16.6638C7 20.5313 10.1325 23.6638 14 23.6638C17.8675 23.6638 21 20.5313 21 16.6638C21 11.9475 18.7338 7.73875 15.3125 5ZM13.7463 21.0388C12.1888 21.0388 10.9287 19.8138 10.9287 18.2913C10.9287 16.8738 11.8475 15.8763 13.3875 15.5613C14.9363 15.2463 16.5375 14.5025 17.43 13.3038C17.7712 14.4325 17.9462 15.6225 17.9462 16.8388C17.9462 19.1575 16.065 21.0388 13.7463 21.0388Z" fill="url(#paint0_linear_312_8)"/>
<defs>
<linearGradient id="paint0_linear_312_8" x1="17.0625" y1="23.375" x2="11.3192" y2="6.67421" gradientUnits="userSpaceOnUse">
<stop stop-color="#E21221"/>
<stop offset="1" stop-color="#FF4451"/>
</linearGradient>
</defs>
</svg>
